<svg id="Capa_1" data-name="Capa 1" xmlns="http://www.w3.org/2000/svg" viewBox="0 0 165.86 56.3"><defs><style>.cls-1{fill:#848688;}.cls-2{fill:#0066a1;}</style></defs><title>heroical-text</title><path d="M417.63,418.88l4.06-25.73h6.92l-3.11,19.57H434l-1,6.15h-15.4Zm-14.27-10.58h5.43l-1.18-6c-0.11-.6-0.2-1.13-0.26-1.6s-0.09-.91-0.1-1.32c-0.25.71-.47,1.33-0.68,1.86s-0.37.92-.48,1.18Zm-12.52,10.58,12.87-25.73h8.61l5.46,25.73h-7l-1-4.86h-9l-2.46,4.86h-7.48Zm3.65-24.51-1.16,7.09a10.65,10.65,0,0,0-3.21-1.94,10.13,10.13,0,0,0-3.62-.65,6.89,6.89,0,0,0-5.27,2.23,8,8,0,0,0-2.07,5.68,6.5,6.5,0,0,0,1.74,4.84,6.71,6.71,0,0,0,4.92,1.71,12.6,12.6,0,0,0,2.82-.34,19.1,19.1,0,0,0,3-1l-1.07,6.66a17.05,17.05,0,0,1-2.91.64,24.62,24.62,0,0,1-3.44.22,11.72,11.72,0,0,1-8.81-3.41,12.44,12.44,0,0,1-3.31-9,15.77,15.77,0,0,1,.85-5.19,14.49,14.49,0,0,1,2.51-4.49,12.53,12.53,0,0,1,4.82-3.6,16.13,16.13,0,0,1,6.47-1.25,16.88,16.88,0,0,1,4,.46A17.26,17.26,0,0,1,394.48,394.38ZM362,418.88l4.08-25.73h7l-4.07,25.73h-7Zm-14.3.68a15.75,15.75,0,0,1-5-.76,11.92,11.92,0,0,1-4-2.27,11.14,11.14,0,0,1-2.88-4,12.49,12.49,0,0,1-1-5,16,16,0,0,1,.89-5.38,14.18,14.18,0,0,1,2.64-4.54,13.62,13.62,0,0,1,5-3.72,15.93,15.93,0,0,1,6.42-1.29,13.2,13.2,0,0,1,9.38,3.34,11.33,11.33,0,0,1,3.57,8.68,15.76,15.76,0,0,1-.91,5.39,14.15,14.15,0,0,1-2.64,4.54,14,14,0,0,1-5,3.76A15.59,15.59,0,0,1,347.74,419.57Zm1.57-20.69a6.93,6.93,0,0,0-5.27,2.27,7.86,7.86,0,0,0-2.13,5.61,6.55,6.55,0,0,0,1.7,4.74,6,6,0,0,0,4.52,1.78,6.89,6.89,0,0,0,5.26-2.34,8.12,8.12,0,0,0,2.16-5.71,6.22,6.22,0,0,0-1.76-4.56A6,6,0,0,0,349.31,398.88Zm-27.15,6h2.16a4.68,4.68,0,0,0,3.12-.93,3.35,3.35,0,0,0,1.09-2.69,2.78,2.78,0,0,0-1-2.4,5.6,5.6,0,0,0-3.26-.74h-1Zm-2.19,14h-6.83l4.05-25.73H324a34.38,34.38,0,0,1,4.61.22,9.18,9.18,0,0,1,2.62.74,6.64,6.64,0,0,1,3,2.58,7.56,7.56,0,0,1,1,4,7.76,7.76,0,0,1-1.91,5.35,8.58,8.58,0,0,1-5.25,2.69l6.27,10.16h-7.85l-5-9.82Zm-15.68-5.72h8l-0.9,5.72H296.52l4.06-25.73h14.83l-0.93,5.94h-8l-0.65,4.21h7.38l-0.86,5.58H305Zm-33.09,5.72,4.06-25.73h6.92l-1.6,9.93h9l1.57-9.93h6.94L294,418.88h-6.94l1.65-10.51h-9l-1.66,10.51h-6.9Z" transform="translate(-268.14 -392.55)"/><path class="cls-1" d="M426.71,443.5a2.59,2.59,0,0,1,2.51-2.82,1.76,1.76,0,0,1,1.86,1.86,2.69,2.69,0,0,1-2.56,2.81,1.72,1.72,0,0,1-1.81-1.85m-0.86.06a2.41,2.41,0,0,0,2.6,2.49,2.57,2.57,0,0,0,2.12-1.1h0l-0.17.95h0.82l1.65-9.31h-0.82l-0.8,4.52h0a2.22,2.22,0,0,0-2-1.12A3.43,3.43,0,0,0,425.85,443.56Zm-0.2-7h-0.84l-1.64,9.31H424ZM420,441.4l-0.79,4.49h0.82l0.52-3c0.27-1.54,1.12-2.18,2-2.18a2,2,0,0,1,.57.07l0.2-.79a1.88,1.88,0,0,0-.54-0.06,2.29,2.29,0,0,0-1.92,1.13h0c0-.25.1-0.68,0.14-1h-0.79C420.19,440.53,420.1,441.1,420,441.4Zm-2.55,1.12a2.65,2.65,0,0,1-2.51,2.82,1.74,1.74,0,0,1-1.83-1.85,2.66,2.66,0,0,1,2.5-2.82A1.75,1.75,0,0,1,417.49,442.52ZM414.93,446a3.43,3.43,0,0,0,3.42-3.57,2.46,2.46,0,0,0-2.66-2.49,3.45,3.45,0,0,0-3.42,3.56A2.48,2.48,0,0,0,414.93,446Zm-11.08-5.91,0.63,5.76h0.87l2.4-4.67h0l0.65,4.67h0.89l2.94-5.76h-0.89l-2.3,4.68h0l-0.68-4.68h-0.79l-2.44,4.68h0l-0.39-4.68h-0.86Zm-8.91,2.49a2.43,2.43,0,0,1,2.34-1.95,1.44,1.44,0,0,1,1.6,1.51c0,0.12,0,.31,0,0.43h-3.91Zm4.65,0.62a4.7,4.7,0,0,0,.11-1,2.15,2.15,0,0,0-2.4-2.25,3.46,3.46,0,0,0-3.34,3.52,2.44,2.44,0,0,0,2.62,2.54,3.31,3.31,0,0,0,2.59-1.22l-0.52-.49a2.48,2.48,0,0,1-2,1,1.8,1.8,0,0,1-1.86-1.83,2.18,2.18,0,0,1,0-.27h4.76ZM390.91,440a2.34,2.34,0,0,0-1.94,1.1h0l0.79-4.49H388.9l-1.64,9.31h0.82l0.52-3c0.27-1.54,1.21-2.27,2.09-2.27A1.14,1.14,0,0,1,392,442a3.91,3.91,0,0,1-.07.73l-0.57,3.19h0.82l0.63-3.53a3.73,3.73,0,0,0,.06-0.62A1.73,1.73,0,0,0,390.91,440Zm-3.62.15H385.7l0.28-1.62h-0.82l-0.28,1.62h-1.17l-0.14.69h1.19l-0.64,3.61a2.37,2.37,0,0,0,0,.39,1.09,1.09,0,0,0,1.23,1.14,2.21,2.21,0,0,0,.95-0.17l0.1-.71a1.38,1.38,0,0,1-.7.18,0.6,0.6,0,0,1-.71-0.68,2.49,2.49,0,0,1,0-.39l0.6-3.37h1.56Zm-12.14,2.49a2.43,2.43,0,0,1,2.34-1.95,1.44,1.44,0,0,1,1.6,1.51c0,0.12,0,.31,0,0.43h-3.92Zm4.65,0.62a4.7,4.7,0,0,0,.11-1,2.15,2.15,0,0,0-2.4-2.25,3.46,3.46,0,0,0-3.34,3.52A2.44,2.44,0,0,0,376.8,446a3.31,3.31,0,0,0,2.59-1.22l-0.52-.49a2.48,2.48,0,0,1-2,1,1.8,1.8,0,0,1-1.86-1.83,2.18,2.18,0,0,1,0-.27h4.76Zm-5.55-3.1h-0.9L370.48,445h0l-0.92-4.87h-0.85l1.21,5.76h0.89ZM366.66,443l-0.09.48a2.21,2.21,0,0,1-2.19,1.87,1,1,0,0,1-1.18-.92c0-1.21,1.8-1.43,3.26-1.43h0.2Zm0.11-.63c-2.12,0-4.43.31-4.43,2.15a1.55,1.55,0,0,0,1.75,1.49,2.63,2.63,0,0,0,2.23-1h0a6.26,6.26,0,0,0-.07.94H367a9.27,9.27,0,0,1,.14-1.29l0.42-2.34a5.37,5.37,0,0,0,0-.62c0-1.17-.95-1.66-2-1.66a3.61,3.61,0,0,0-2.25.82l0.37,0.55a2.93,2.93,0,0,1,1.8-.69,1.11,1.11,0,0,1,1.35,1.14A3,3,0,0,1,366.78,442.36ZM362,440.94A2.17,2.17,0,0,0,360,440c-1,0-2.22.5-2.22,1.69a1.66,1.66,0,0,0,1.45,1.53c0.91,0.3,1.4.54,1.4,1.16a1.21,1.21,0,0,1-1.44,1,1.86,1.86,0,0,1-1.6-.86l-0.71.47a2.73,2.73,0,0,0,2.35,1.1,2,2,0,0,0,2.23-1.77c0-.91-0.62-1.37-1.74-1.69-0.71-.21-1.14-0.36-1.14-1a1.18,1.18,0,0,1,1.37-.94,1.44,1.44,0,0,1,1.34.73Zm-8.74,3.79h-0.87L351,447.62h0.7Zm-1.33-4.59h-1.59l0.28-1.62h-0.82l-0.28,1.62h-1.17l-0.14.69h1.19l-0.64,3.61a2.37,2.37,0,0,0,0,.39,1.09,1.09,0,0,0,1.23,1.14,2.21,2.21,0,0,0,.95-0.17l0.1-.71a1.38,1.38,0,0,1-.7.18,0.6,0.6,0,0,1-.71-0.68,2.49,2.49,0,0,1,0-.39l0.6-3.37h1.56Zm-3.67.82a2.26,2.26,0,0,0-2-1,3.41,3.41,0,0,0-3.45,3.58,2.42,2.42,0,0,0,2.67,2.47,3.08,3.08,0,0,0,2.29-1l-0.53-.46a2.25,2.25,0,0,1-1.7.75,1.75,1.75,0,0,1-1.86-1.85,2.65,2.65,0,0,1,2.55-2.82,1.43,1.43,0,0,1,1.34.76Zm-11.17,1.66a2.43,2.43,0,0,1,2.34-1.95,1.44,1.44,0,0,1,1.6,1.51c0,0.12,0,.31,0,0.43h-3.92Zm4.65,0.62a4.7,4.7,0,0,0,.11-1,2.15,2.15,0,0,0-2.4-2.25,3.46,3.46,0,0,0-3.34,3.52,2.44,2.44,0,0,0,2.62,2.54,3.31,3.31,0,0,0,2.59-1.22l-0.52-.49a2.48,2.48,0,0,1-2,1,1.8,1.8,0,0,1-1.86-1.83,2.18,2.18,0,0,1,0-.27h4.76Zm-6-5.33a0.54,0.54,0,0,0-.55-0.57,0.6,0.6,0,0,0-.59.6,0.54,0.54,0,0,0,.57.55A0.59,0.59,0,0,0,335.77,437.91Zm-4.19,10.86a2.78,2.78,0,0,0,.69.09c1.3,0,1.64-.89,1.8-1.81l1.22-6.91h-0.82l-1.19,6.77c-0.14.73-.3,1.23-1,1.23a1.82,1.82,0,0,1-.52-0.07Zm0.07-6.24a2.65,2.65,0,0,1-2.51,2.82,1.74,1.74,0,0,1-1.83-1.85,2.66,2.66,0,0,1,2.5-2.82A1.75,1.75,0,0,1,331.66,442.52ZM329.1,446a3.43,3.43,0,0,0,3.42-3.57,2.46,2.46,0,0,0-2.66-2.49,3.45,3.45,0,0,0-3.42,3.56A2.48,2.48,0,0,0,329.1,446Zm-5.6-4.64-0.79,4.49h0.82l0.52-3c0.27-1.54,1.12-2.18,2-2.18a2,2,0,0,1,.57.07l0.2-.79a1.88,1.88,0,0,0-.54-0.06,2.29,2.29,0,0,0-1.92,1.13h0c0-.25.1-0.68,0.14-1h-0.79C323.64,440.53,323.56,441.1,323.5,441.4Zm-2.55,1.12a2.59,2.59,0,0,1-2.51,2.82,1.76,1.76,0,0,1-1.86-1.86,2.69,2.69,0,0,1,2.56-2.81A1.72,1.72,0,0,1,320.95,442.52Zm-3.85-1.45h0l0.17-.94h-0.82l-1.55,8.72h0.82l0.7-3.93h0a2.22,2.22,0,0,0,2,1.12,3.43,3.43,0,0,0,3.39-3.57,2.41,2.41,0,0,0-2.6-2.49A2.59,2.59,0,0,0,317.09,441.07Zm-10.45,1.55a2.43,2.43,0,0,1,2.34-1.95,1.44,1.44,0,0,1,1.6,1.51c0,0.12,0,.31,0,0.43h-3.91Zm4.65,0.62a4.7,4.7,0,0,0,.11-1A2.15,2.15,0,0,0,309,440a3.46,3.46,0,0,0-3.34,3.52,2.44,2.44,0,0,0,2.62,2.54,3.31,3.31,0,0,0,2.59-1.22l-0.52-.49a2.48,2.48,0,0,1-2,1,1.8,1.8,0,0,1-1.86-1.83,2.19,2.19,0,0,1,0-.27h4.76ZM302.61,440a2.34,2.34,0,0,0-1.94,1.1h0l0.79-4.49h-0.82L299,445.9h0.82l0.52-3c0.27-1.54,1.21-2.27,2.09-2.27a1.14,1.14,0,0,1,1.31,1.3,3.93,3.93,0,0,1-.07.73l-0.57,3.19h0.82l0.63-3.53a3.74,3.74,0,0,0,.06-0.62A1.73,1.73,0,0,0,302.61,440Zm-3.62.15h-1.59l0.28-1.62h-0.82l-0.28,1.62h-1.17l-0.14.69h1.19l-0.64,3.61a2.37,2.37,0,0,0,0,.39A1.09,1.09,0,0,0,297,446a2.21,2.21,0,0,0,.95-0.17l0.1-.71a1.38,1.38,0,0,1-.7.18,0.6,0.6,0,0,1-.71-0.68,2.49,2.49,0,0,1,0-.39l0.6-3.37h1.56Zm-12.14,2.49a2.43,2.43,0,0,1,2.34-1.95,1.44,1.44,0,0,1,1.6,1.51c0,0.12,0,.31,0,0.43h-3.91Zm4.65,0.62a4.7,4.7,0,0,0,.11-1,2.15,2.15,0,0,0-2.4-2.25,3.46,3.46,0,0,0-3.34,3.52A2.44,2.44,0,0,0,288.5,446a3.31,3.31,0,0,0,2.59-1.22l-0.52-.49a2.48,2.48,0,0,1-2,1,1.8,1.8,0,0,1-1.86-1.83,2.19,2.19,0,0,1,0-.27h4.76Zm-5.55-3.1h-0.9L282.19,445h0l-0.92-4.87h-0.85l1.21,5.76h0.89ZM278.37,443l-0.09.48a2.21,2.21,0,0,1-2.19,1.87,1,1,0,0,1-1.18-.92c0-1.21,1.8-1.43,3.26-1.43h0.2Zm0.11-.63c-2.12,0-4.43.31-4.43,2.15A1.55,1.55,0,0,0,275.8,446a2.63,2.63,0,0,0,2.23-1h0a6.26,6.26,0,0,0-.07.94h0.74a9.27,9.27,0,0,1,.14-1.29l0.42-2.34a5.37,5.37,0,0,0,0-.62c0-1.17-.95-1.66-2-1.66a3.61,3.61,0,0,0-2.25.82l0.37,0.55a2.93,2.93,0,0,1,1.8-.69,1.11,1.11,0,0,1,1.35,1.14A3,3,0,0,1,278.48,442.36Zm-4.79-1.43a2.17,2.17,0,0,0-1.95-.95c-1,0-2.22.5-2.22,1.69A1.66,1.66,0,0,0,271,443.2c0.91,0.3,1.4.54,1.4,1.16a1.21,1.21,0,0,1-1.44,1,1.86,1.86,0,0,1-1.6-.86l-0.71.47A2.73,2.73,0,0,0,271,446a2,2,0,0,0,2.23-1.77c0-.91-0.62-1.37-1.74-1.69-0.71-.21-1.14-0.36-1.14-1a1.18,1.18,0,0,1,1.37-.94,1.44,1.44,0,0,1,1.34.73Z" transform="translate(-268.14 -392.55)"/><path class="cls-2" d="M356.54,429.86a6.53,6.53,0,0,0,1.61,1.32,3.33,3.33,0,0,0,1.58.41,1.66,1.66,0,0,0,1.08-.33,1.07,1.07,0,0,0,.4-0.87q0-.73-1.63-1.58l-0.25-.13a6.63,6.63,0,0,1-2.18-1.59,3,3,0,0,1-.59-1.85,4.28,4.28,0,0,1,1.34-3.26,4.86,4.86,0,0,1,3.46-1.27,6,6,0,0,1,2.15.39,6.83,6.83,0,0,1,1.95,1.17l-1.54,2.65a6.82,6.82,0,0,0-1.32-.92,2.47,2.47,0,0,0-1.1-.3,1.36,1.36,0,0,0-.92.32,1,1,0,0,0-.37.77q0,0.57,1.37,1.27l0.75,0.4a5.59,5.59,0,0,1,2,1.59,3.55,3.55,0,0,1,.55,2,4.31,4.31,0,0,1-1.5,3.44,6,6,0,0,1-4.07,1.29,5.67,5.67,0,0,1-2.52-.57,6.48,6.48,0,0,1-2.12-1.7Zm-15,4.62L343.67,421h4.1l2.83,6.64,0.12,0.28a11.13,11.13,0,0,1,.65,1.91v-0.34c0-.25,0-0.52,0-0.81s0.07-.65.12-1.08l1-6.6h3.59L354,434.49H350.1l-3-6.84c-0.22-.49-0.39-0.91-0.5-1.23s-0.21-.65-0.29-1v0.38c0,0.24,0,.5,0,0.77s-0.06.64-.12,1.09l-1,6.8h-3.59Zm-7.41.36a8.22,8.22,0,0,1-2.62-.39,6.23,6.23,0,0,1-2.1-1.18,5.82,5.82,0,0,1-1.5-2.08,6.52,6.52,0,0,1-.54-2.63,8.35,8.35,0,0,1,.46-2.81,7.41,7.41,0,0,1,1.38-2.37,7.11,7.11,0,0,1,2.62-1.94,8.32,8.32,0,0,1,3.35-.67,6.89,6.89,0,0,1,4.9,1.74A5.92,5.92,0,0,1,342,427a8.23,8.23,0,0,1-.47,2.81,7.39,7.39,0,0,1-1.38,2.37,7.29,7.29,0,0,1-2.62,2A8.14,8.14,0,0,1,334.14,434.84ZM335,424a3.62,3.62,0,0,0-2.75,1.18,4.1,4.1,0,0,0-1.11,2.93,3.42,3.42,0,0,0,.89,2.47,3.12,3.12,0,0,0,2.36.93,3.6,3.6,0,0,0,2.75-1.22,4.24,4.24,0,0,0,1.13-3,3.25,3.25,0,0,0-.92-2.38A3.14,3.14,0,0,0,335,424Zm-13,10.45L324,421h3.66l-2.13,13.44h-3.66Zm-6.88,0,1.63-10.32h-3l0.51-3.12h9.48l-0.51,3.12h-2.87l-1.63,10.32H315ZM302.65,421h3.6l-1.07,6.74c-0.08.51-.14,0.92-0.17,1.21a7.27,7.27,0,0,0,0,.77,1.81,1.81,0,0,0,.49,1.34,1.85,1.85,0,0,0,1.36.48q2.08,0,2.95-5.52l0-.13,0.77-4.89h3.61l-1.2,7.62h0a11,11,0,0,1-1,3.51,4.93,4.93,0,0,1-2.12,2,7.12,7.12,0,0,1-3.24.69,6,6,0,0,1-3.85-1.15,3.71,3.71,0,0,1-1.45-3.06,14.37,14.37,0,0,1,.11-1.53q0.11-1,.33-2.37Zm-10,13.44L294.75,421h3.61l-1.63,10.22h4.44l-0.5,3.21h-8Zm-7.41.36a8.22,8.22,0,0,1-2.62-.39,6.23,6.23,0,0,1-2.1-1.18,5.82,5.82,0,0,1-1.5-2.08,6.52,6.52,0,0,1-.54-2.63,8.34,8.34,0,0,1,.46-2.81,7.41,7.41,0,0,1,1.38-2.37,7.12,7.12,0,0,1,2.62-1.94,8.32,8.32,0,0,1,3.35-.67,6.89,6.89,0,0,1,4.9,1.74A5.92,5.92,0,0,1,293,427a8.23,8.23,0,0,1-.47,2.81,7.39,7.39,0,0,1-1.38,2.37,7.29,7.29,0,0,1-2.62,2A8.14,8.14,0,0,1,285.22,434.84ZM286,424a3.62,3.62,0,0,0-2.75,1.18,4.1,4.1,0,0,0-1.11,2.93,3.42,3.42,0,0,0,.89,2.47,3.12,3.12,0,0,0,2.36.93,3.6,3.6,0,0,0,2.75-1.22,4.24,4.24,0,0,0,1.13-3,3.25,3.25,0,0,0-.92-2.38A3.14,3.14,0,0,0,286,424Zm-16,5.83a6.53,6.53,0,0,0,1.61,1.32,3.33,3.33,0,0,0,1.58.41,1.66,1.66,0,0,0,1.08-.33,1.07,1.07,0,0,0,.4-0.87q0-.73-1.63-1.58l-0.25-.13a6.64,6.64,0,0,1-2.18-1.59,3,3,0,0,1-.59-1.85,4.28,4.28,0,0,1,1.34-3.26,4.85,4.85,0,0,1,3.46-1.27,6,6,0,0,1,2.15.39,6.83,6.83,0,0,1,1.95,1.17l-1.54,2.65a6.82,6.82,0,0,0-1.32-.92,2.47,2.47,0,0,0-1.1-.3,1.36,1.36,0,0,0-.92.32,1,1,0,0,0-.37.77q0,0.57,1.37,1.27l0.75,0.4a5.59,5.59,0,0,1,2,1.59,3.55,3.55,0,0,1,.55,2,4.31,4.31,0,0,1-1.5,3.44,6,6,0,0,1-4.07,1.29,5.67,5.67,0,0,1-2.52-.57,6.48,6.48,0,0,1-2.12-1.7Z" transform="translate(-268.14 -392.55)"/></svg>